<svg xmlns="http://www.w3.org/2000/svg" xmlns:xlink="http://www.w3.org/1999/xlink" width="20" height="18" viewBox="0 0 20 18" fill="none">
<path fill-rule="evenodd"  fill="#A6A6A6"  d="M8.41 0L1 0C0.4478 0 0 0.44758 0 1L0 17C0 17.5524 0.4478 18 1 18L19 18C19.5522 18 20 17.5524 20 17L20 3C20 2.44758 19.5522 2 19 2L10.41 2L8.41 0ZM2 16L18 16L18 4L9.59 4L7.59 2L2 2L2 16ZM14 6L9 6L9 10.05C7.96424 9.8386 6.90688 10.3054 6.36 11.21C5.81304 12.1146 5.89152 13.2611 6.56 14.08C7.22848 14.8989 8.34416 15.2047 9.34 14.85C10.3358 14.4952 11 13.5571 11 12.5L11 8L14 8L14 6Z">
</path>
</svg>