<svg xmlns="http://www.w3.org/2000/svg" xmlns:xlink="http://www.w3.org/1999/xlink" width="20" height="20"
    viewBox="0 0 20 20" fill="none">
    <path fill-rule="evenodd" fill="#A6A6A6"
        d="M0 20L2.93 17.07C1.0518 15.1966 0 12.6528 0 10C0 4.477 4.477 0 10 0C15.523 0 20 4.477 20 10C20 15.523 15.523 20 10 20L0 20ZM18 10C18 14.4182 14.4182 18 10 18L4.83 18L5.76 17.07L4.34 15.66C2.848 14.168 2 12.152 2 10C2 5.58176 5.58176 2 10 2C14.4182 2 18 5.58176 18 10ZM9 5C9 4.44772 9.44771 4 10 4C10.5523 4 11 4.44772 11 5L11 15C11 15.5523 10.5523 16 10 16C9.44771 16 9 15.5523 9 15L9 5ZM5 8C5 7.44772 5.44772 7 6 7C6.55228 7 7 7.44772 7 8L7 12C7 12.5523 6.55228 13 6 13C5.44772 13 5 12.5523 5 12L5 8ZM14 13C13.4477 13 13 12.5523 13 12L13 8C13 7.44772 13.4477 7 14 7C14.5523 7 15 7.44772 15 8L15 12C15 12.5523 14.5523 13 14 13Z">
    </path>
</svg>